# xmcd
#
# Track frame offsets: 
#        150
#        13920
#        32890
#        44731
#        54930
#        67398
#        83401
#        105049
#        116296
#        133536
#        146755
#        159767
#        179178
#        203286
#        214718
#        227947
#
# Disc length: 3349 seconds
#
# Revision: 0
# Processed by: cddbd v1.5.2PL0 Copyright (c) Steve Scherf et al.
# Submitted via: ExactAudioCopy v0.90a11
#
DISCID=d90d1310
DTITLE=Various Artist - Bar Songs CD2
DYEAR=1900
DGENRE=
TTITLE0=Charles,Ray/A fool for my girl-1955
TTITLE1=Neville,Aaron/Hercules-2004
TTITLE2=Simone,Nina/Memphis in June-2004
TTITLE3=Hooker,John Lee/Dimples-1960
TTITLE4=Reed,Jimmy/Bright lights big City-1961
TTITLE5=Gentry,Bobby/Ace Insurance man -1968
TTITLE6=Covay,Don Whats in the headlines-1992
TTITLE7=Friends of the Rodney Jones/Soul heaven-1971
TTITLE8=Notations/Super people
TTITLE9=Davis,Bette/Hangin out in Hollywood
TTITLE10=Rawls,Lou/your good thing (ia about to end)
TTITLE11=Mayfield,Curtis/Give me your love(love song)
TTITLE12=Kent,Stacey/Im just a lucky so and so-2002
TTITLE13=Gayle,Chystal/Dont it make my brown eyes blue
TTITLE14=DeVille,Mink/Heaven stood still-1980
TTITLE15=Wilson,Cassandra/Blue light til dawn
EXTD=
EXTT0=
EXTT1=
EXTT2=
EXTT3=
EXTT4=
EXTT5=
EXTT6=
EXTT7=
EXTT8=
EXTT9=
EXTT10=
EXTT11=
EXTT12=
EXTT13=
EXTT14=
EXTT15=
PLAYORDER=
